<?xml version="1.0" standalone="no"?>
<!DOCTYPE svg PUBLIC "-//W3C//DTD SVG 20010904//EN"
 "http://www.w3.org/TR/2001/REC-SVG-20010904/DTD/svg10.dtd">
<svg version="1.0" xmlns="http://www.w3.org/2000/svg"
 width="4100.000000pt" height="4100.000000pt" viewBox="0 0 4100.000000 4100.000000"
 preserveAspectRatio="xMidYMid meet">
<metadata>
Created by potrace 1.11, written by Peter Selinger 2001-2013
</metadata>
<g transform="translate(0.000000,4100.000000) scale(0.100000,-0.100000)"
fill="#000000" stroke="none">
<path d="M10312 29480 l0 -890 21 -1 c28 -1 19228 -1 19245 0 9 1 12 186 12
891 l0 890 -9639 0 -9640 0 1 -890z"/>
<path d="M15339 25862 c-14 -3 -36 -75 -145 -477 -18 -66 -66 -244 -108 -395
-42 -151 -76 -277 -76 -280 0 -5 932 -6 951 -1 3 0 11 22 17 49 6 26 28 108
47 182 20 74 47 176 60 225 13 50 44 169 70 265 91 341 113 430 107 431 -16 3
-910 4 -923 1z"/>
<path d="M2143 23670 l-558 -558 1 -3523 c1 -1938 2 -3528 3 -3534 1 -11 1846
-14 1856 -3 4 3 6 589 6 1302 l0 1296 557 -2 557 -3 0 -1295 c0 -1005 3 -1296
12 -1300 10 -4 1677 -5 1811 -1 l32 1 0 3533 0 3532 -557 557 -558 557 -1302
-1 -1302 -1 -558 -557z m2422 -2232 l1 -1298 -31 -1 c-16 0 -266 -1 -555 -1
l-525 0 -2 1300 -2 1301 557 -2 557 -2 0 -1297z"/>
<path d="M7330 20140 c0 -3262 3 -4089 13 -4092 10 -3 1808 -2 1842 1 7 1 10
667 10 2005 0 1102 3 2002 8 1999 4 -2 7 -10 7 -17 0 -8 22 -87 49 -177 27
-90 65 -220 85 -289 20 -69 45 -154 56 -190 199 -677 463 -1577 470 -1605 5
-16 22 -75 38 -130 37 -120 92 -308 137 -465 18 -63 48 -162 65 -220 17 -58
42 -143 55 -190 13 -47 43 -146 65 -220 23 -74 46 -151 51 -170 4 -19 15 -60
25 -90 21 -70 45 -152 48 -165 1 -5 7 -26 14 -45 l12 -35 887 0 c489 0 890 3
893 7 3 3 5 1844 5 4090 l0 4083 -925 2 -925 1 -5 -2010 -5 -2010 -54 188
c-30 104 -65 221 -77 259 -26 84 -167 559 -179 605 -2 8 -26 89 -53 180 -27
91 -52 174 -55 185 -3 11 -40 135 -82 275 -42 140 -78 262 -80 270 -2 8 -4 15
-5 15 -1 0 -3 7 -5 15 -2 8 -15 56 -30 105 -15 50 -31 104 -35 120 -5 17 -22
75 -38 130 -42 138 -96 322 -192 645 -45 151 -104 352 -132 445 -75 252 -128
431 -150 511 l-21 72 -893 0 -894 -1 0 -4087z"/>
<path d="M13631 23671 l-558 -558 0 -2975 0 -2976 552 -552 c304 -304 557
-555 563 -559 11 -7 2598 -8 2607 0 2 2 255 253 560 558 l555 554 0 2975 0
2975 -559 557 -558 558 -1303 0 -1302 0 -557 -557z m2420 -949 c1 -22 1 -5164
0 -5177 -1 -7 -193 -10 -556 -10 l-555 0 0 2602 0 2602 555 0 c516 0 555 -1
556 -17z"/>
<path d="M18818 24216 c-6 -20 -2 -8152 4 -8162 4 -5 368 -9 934 -8 l928 0 0
2007 c0 1104 1 2006 2 2004 4 -3 314 -1053 319 -1080 2 -10 15 -55 29 -100 23
-76 127 -427 139 -472 3 -11 20 -67 37 -125 17 -58 58 -196 91 -308 32 -111
86 -295 120 -410 33 -114 87 -297 119 -407 32 -110 86 -294 120 -410 34 -115
63 -217 65 -225 2 -8 19 -66 38 -127 19 -62 32 -113 29 -113 -2 0 0 -6 6 -13
6 -7 16 -33 22 -57 6 -25 12 -49 14 -55 2 -5 9 -31 16 -57 7 -27 15 -48 19
-49 35 -5 1774 -2 1777 3 3 5 6 5455 4 7890 l0 286 -917 0 c-505 0 -922 -4
-928 -8 -7 -6 -10 -686 -9 -2010 1 -1637 -1 -1995 -12 -1963 -11 34 -105 349
-185 618 -16 55 -33 114 -39 130 -14 47 -142 476 -150 510 -5 17 -17 59 -28
95 -11 36 -37 121 -57 190 -20 69 -49 168 -65 220 -16 52 -36 120 -44 150 -8
30 -27 93 -41 140 -15 47 -41 137 -60 200 -18 63 -59 200 -90 305 -31 104 -59
197 -61 205 -3 14 -154 523 -195 660 -11 36 -52 175 -92 310 l-73 245 -891 1
c-652 1 -893 -2 -895 -10z"/>
<path d="M24560 20139 c0 -3239 3 -4089 13 -4090 38 -3 1825 -4 1838 -1 15 3
16 355 16 4092 l0 4087 -933 1 -934 0 0 -4089z"/>
<path d="M27339 24216 c-4 -40 -3 -8166 1 -8167 26 -5 1845 -2 1852 2 7 5 11
659 11 2093 0 1148 1 2085 3 2083 3 -3 25 -101 37 -167 5 -26 44 -214 117
-560 22 -107 43 -211 46 -230 3 -19 8 -38 10 -41 2 -4 6 -24 10 -45 3 -22 13
-68 21 -104 8 -36 17 -76 19 -90 7 -37 63 -308 74 -355 5 -22 12 -56 15 -75 3
-19 8 -42 10 -50 2 -8 7 -31 10 -50 3 -19 11 -55 16 -80 6 -25 28 -128 49
-230 87 -420 159 -767 164 -790 2 -14 9 -45 15 -70 5 -25 12 -56 15 -70 8 -44
47 -234 52 -255 2 -11 11 -51 19 -90 8 -38 26 -126 40 -195 63 -295 97 -461
113 -542 12 -64 21 -88 32 -89 52 -3 1348 -4 1361 -1 15 3 33 72 73 277 7 35
77 369 82 390 3 11 9 40 14 65 5 25 11 54 14 65 7 33 117 558 122 584 3 13 27
128 54 255 27 127 51 242 54 256 7 36 56 271 62 295 3 11 9 40 14 65 13 62 16
75 39 181 11 52 22 108 25 124 3 17 8 39 10 50 3 11 12 54 21 95 21 96 23 104
36 170 5 30 12 66 15 80 3 14 26 120 51 235 25 116 47 221 49 233 6 32 139
666 151 722 7 31 11 -610 12 -2047 l1 -2093 43 -1 c229 -5 1786 -3 1798 3 14
6 16 370 15 4090 l-1 4083 -1182 1 -1183 2 -9 -37 c-5 -20 -34 -139 -65 -266
-30 -126 -74 -306 -97 -400 -22 -93 -43 -177 -44 -185 -2 -8 -24 -100 -50
-205 -26 -104 -48 -197 -50 -205 -2 -8 -28 -116 -59 -240 -30 -124 -68 -281
-85 -350 -16 -69 -59 -244 -95 -390 -35 -146 -79 -323 -96 -395 -55 -230 -120
-499 -127 -525 -3 -14 -7 -29 -8 -35 -2 -5 -24 -95 -50 -200 -25 -104 -48
-197 -50 -205 -1 -8 -8 -33 -13 -55 -6 -22 -13 -51 -16 -65 -10 -52 -15 -70
-20 -78 -3 -5 -7 -22 -10 -38 -15 -88 -121 -503 -127 -497 -3 5 -32 116 -64
248 -31 132 -81 341 -111 463 -30 123 -56 238 -59 255 -3 17 -8 33 -10 37 -2
3 -6 17 -9 31 -2 13 -30 130 -62 259 -31 129 -65 271 -76 315 -10 44 -20 87
-22 95 -9 37 -89 366 -91 375 -1 6 -5 21 -8 35 -4 14 -22 90 -41 170 -19 80
-49 204 -67 275 -17 72 -32 137 -34 145 -2 8 -17 74 -35 145 -70 290 -82 341
-85 355 -4 17 -64 265 -101 419 -14 57 -27 112 -29 123 -2 10 -18 76 -35 146
-17 70 -33 136 -36 147 -2 11 -21 90 -42 175 l-38 155 -1187 1 c-887 2 -1187
-1 -1188 -10z"/>
<path d="M35685 23682 c-301 -300 -552 -555 -559 -566 -10 -17 -12 -641 -12
-2989 l1 -2967 558 -557 557 -557 1303 1 1302 0 558 556 557 556 0 2978 0
2978 -557 557 -558 557 -1301 -1 -1302 0 -547 -546z m2410 -3544 c0 -2597 0
-2598 -20 -2599 -55 -4 -1072 -5 -1082 -1 -9 3 -12 607 -12 2602 l0 2599 557
-2 557 -2 0 -2597z"/>
<path d="M20460 14116 c-149 -40 -239 -141 -287 -318 -15 -56 -17 -132 -17
-693 0 -346 3 -650 7 -675 30 -180 116 -301 250 -352 81 -30 234 -33 315 -5
63 22 142 83 177 135 31 48 73 152 81 206 4 22 8 181 9 351 l2 310 -181 -1
c-212 -2 -199 -1 -193 -16 3 -10 45 -13 163 -14 87 -1 164 -2 170 -3 18 -2 15
-523 -3 -621 -14 -71 -45 -158 -68 -189 -33 -45 -96 -97 -144 -120 -49 -22
-69 -26 -166 -26 -104 0 -114 2 -177 33 -112 55 -173 149 -205 317 -4 22 -7
324 -7 670 0 572 2 636 18 694 35 129 100 217 192 262 101 48 258 48 360 -1
94 -46 169 -154 195 -280 10 -47 16 -146 18 -267 1 -22 6 -33 15 -33 12 0 14
22 11 133 -4 124 -17 201 -46 272 -7 17 -13 32 -13 35 -1 3 -18 29 -38 57 -42
59 -102 103 -173 128 -61 22 -203 28 -265 11z"/>
<path d="M39025 14112 c-108 -31 -173 -81 -223 -172 -80 -146 -94 -372 -32
-513 50 -113 133 -194 330 -325 258 -170 338 -241 390 -347 36 -72 47 -129 45
-221 -8 -286 -129 -438 -359 -451 -225 -14 -372 103 -411 327 -3 19 -9 82 -11
140 -3 58 -7 107 -9 109 -29 28 -29 -186 0 -294 43 -165 134 -263 278 -301 61
-16 198 -15 256 3 190 57 293 237 286 499 -7 224 -97 338 -451 564 -138 88
-267 210 -304 285 -36 76 -49 148 -45 249 4 96 7 117 26 175 30 93 86 168 160
214 83 51 263 58 361 14 92 -41 175 -142 194 -236 1 -7 7 -34 13 -60 6 -25 12
-75 13 -111 3 -61 12 -85 29 -74 8 5 2 101 -11 184 -26 165 -118 289 -250 335
-69 24 -203 28 -275 7z"/>
<path d="M1544 14105 c-2 -5 -3 -467 -2 -1025 l3 -1015 220 0 c121 1 243 4
270 7 167 21 274 122 316 296 18 71 19 409 3 487 -33 157 -118 250 -267 290
-28 7 -46 14 -39 14 6 1 14 1 17 2 32 3 115 42 150 69 48 39 89 114 101 190
12 78 11 341 -2 412 -30 157 -101 236 -241 269 -62 14 -524 18 -529 4z m505
-29 c139 -23 220 -114 238 -271 17 -139 5 -416 -18 -439 -5 -6 -9 -17 -9 -26
0 -25 -67 -98 -109 -119 -67 -34 -168 -48 -379 -50 l-202 -2 0 454 c0 249 2
456 4 458 7 7 428 2 475 -5z m-73 -940 c118 -10 215 -51 271 -115 25 -29 56
-90 74 -146 14 -44 19 -360 7 -455 -13 -106 -46 -178 -107 -233 -89 -80 -133
-90 -418 -92 l-233 -1 0 522 0 523 23 3 c36 5 304 1 383 -6z"/>
<path d="M7737 14113 c-4 -3 -7 -376 -7 -827 1 -834 2 -858 38 -971 53 -168
201 -270 384 -264 203 6 322 104 384 314 16 55 18 134 20 902 3 777 0 900 -21
841 -2 -7 -6 -386 -8 -843 -2 -456 -6 -843 -10 -858 -31 -119 -69 -189 -132
-245 -59 -52 -120 -74 -221 -78 -193 -8 -306 69 -371 252 l-28 79 -3 845 c-1
465 -6 848 -11 853 -4 4 -10 4 -14 0z"/>
<path d="M13920 13088 c0 -817 3 -1027 13 -1026 9 2 13 110 17 483 l5 480 155
0 c251 1 358 -17 444 -72 54 -35 82 -67 110 -127 33 -70 37 -105 40 -391 3
-207 7 -259 21 -300 16 -47 38 -75 57 -75 5 0 2 13 -7 30 -32 62 -41 143 -43
375 -3 284 -5 300 -48 385 -43 85 -115 140 -218 170 l-61 17 60 17 c145 43
224 130 255 281 12 59 16 354 6 427 -21 155 -90 259 -206 312 -77 35 -104 38
-367 40 l-233 1 0 -1027z m500 987 c59 -9 141 -50 178 -89 80 -84 104 -179
104 -416 0 -217 -5 -247 -49 -338 -45 -91 -136 -148 -274 -168 -30 -4 -138 -8
-241 -9 l-188 -1 0 512 c0 381 3 513 12 516 19 7 410 1 458 -7z"/>
<path d="M26360 13090 l0 -1025 379 0 c209 0 383 4 387 8 5 4 3 11 -3 15 -6 4
-174 7 -372 6 l-361 0 0 498 0 498 309 0 c265 0 310 2 315 15 5 13 -34 15
-309 15 l-315 0 0 480 c0 377 3 480 13 481 6 1 172 2 367 3 307 1 355 3 358
16 2 13 -46 15 -383 15 l-385 0 0 -1025z"/>
<path d="M32494 14111 c-2 -2 -4 -464 -4 -1026 0 -901 2 -1022 15 -1022 13 0
15 60 15 481 l0 482 178 -2 c97 0 202 -4 232 -8 138 -18 235 -71 290 -160 42
-68 49 -126 51 -381 1 -246 12 -343 44 -391 20 -32 51 -23 31 9 -38 60 -45
122 -46 419 -2 215 -9 268 -48 343 -42 83 -147 156 -245 172 l-42 6 64 18
c152 43 238 143 265 310 5 29 7 213 4 374 0 40 -28 146 -48 186 -47 91 -131
155 -237 180 -45 10 -509 19 -519 10z m523 -44 c108 -28 186 -95 218 -187 1
-3 5 -12 8 -20 20 -48 26 -127 24 -320 -3 -201 -5 -219 -27 -275 -40 -99 -135
-174 -245 -193 -74 -12 -161 -17 -305 -17 l-165 0 -3 505 c-1 278 0 510 2 515
7 18 419 11 493 -8z"/>
</g>
</svg>
